<svg width="20" height="20" viewBox="0 0 20 20" fill="none" xmlns="http://www.w3.org/2000/svg">
<path fill-rule="evenodd" clip-rule="evenodd" d="M12.1548 19.5247C12.1548 19.5247 11.6667 19.0494 11.6667 18.3773V13.509H8.33333V18.3773C8.33333 18.3773 8.33333 19.0494 7.84518 19.5247C7.84518 19.5247 7.35702 20 6.66667 20H1.66667C1.66667 20 0.976311 20 0.488156 19.5247C0.488156 19.5247 0 19.0494 0 18.3773V8.9958C0 8.9958 0.00566104 8.64856 0.144063 8.34277C0.144063 8.34277 0.282465 8.03698 0.531986 7.80754L8.87705 0.423629C8.87705 0.423629 9.35264 0 10 0C10 0 10.6474 0 11.125 0.425454L19.4563 7.79695C19.4563 7.79695 19.7175 8.03698 19.8559 8.34277C19.8559 8.34277 19.9943 8.64856 19.9999 8.98268L20 18.3773C20 18.3773 20 19.0494 19.5118 19.5247C19.5118 19.5247 19.0237 20 18.3333 20H13.3333C13.3333 20 12.643 20 12.1548 19.5247ZM13.3333 18.3773H18.3333L18.3334 9.00893C18.3334 9.00893 18.3333 9.00278 18.3308 8.99715L18.3303 8.99458C18.3303 8.99458 18.331 8.99403 18.335 8.99758L10 1.62274L9.99795 1.62456L1.67635 8.9873C1.67635 8.9873 1.67175 8.99152 1.66921 8.99715L1.66738 8.99966C1.66738 8.99966 1.66667 8.99952 1.66667 8.99588V18.3773H6.66667V13.509C6.66667 13.509 6.66667 12.8369 7.15482 12.3616C7.15482 12.3616 7.64298 11.8863 8.33333 11.8863H11.6667C11.6667 11.8863 12.357 11.8863 12.8452 12.3616C12.8452 12.3616 13.3333 12.8369 13.3333 13.509L13.3333 18.3773Z" fill="white"/>
</svg>
