<svg width="20" height="20" viewBox="0 0 20 20" fill="none" xmlns="http://www.w3.org/2000/svg">
<path d="M19.4583 7.79885L11.1251 0.425457C10.8179 0.151779 10.4165 0 10.0001 0C9.5837 0 9.18236 0.151779 8.87512 0.425457L0.541883 7.79885C0.371265 7.95083 0.234996 8.13572 0.141744 8.34176C0.0484912 8.5478 0.000295739 8.77047 0.000222255 8.99563V18.3366C-0.00655317 18.7457 0.14179 19.1429 0.416884 19.4523C0.573016 19.6251 0.76535 19.7634 0.980956 19.8579C1.19656 19.9524 1.43044 20.0008 1.66687 19.9999H6.66682C6.88783 19.9999 7.09979 19.9145 7.25606 19.7623C7.41234 19.6101 7.50014 19.4038 7.50014 19.1886V14.3203C7.50014 14.1051 7.58794 13.8987 7.74421 13.7466C7.90049 13.5944 8.11245 13.5089 8.33346 13.5089H11.6668C11.8878 13.5089 12.0997 13.5944 12.256 13.7466C12.4123 13.8987 12.5001 14.1051 12.5001 14.3203V19.1886C12.5001 19.4038 12.5879 19.6101 12.7442 19.7623C12.9004 19.9145 13.1124 19.9999 13.3334 19.9999H18.3334C18.6098 20.0023 18.8823 19.936 19.125 19.8072C19.3892 19.6672 19.6098 19.4605 19.7637 19.2089C19.9177 18.9573 19.9993 18.67 20 18.3772V8.99563C19.9999 8.77047 19.9517 8.5478 19.8585 8.34176C19.7652 8.13572 19.629 7.95083 19.4583 7.79885Z" fill="white"/>
</svg>
