<svg width="25" height="25" viewBox="0 0 25 25" fill="none" xmlns="http://www.w3.org/2000/svg">
<path d="M3.125 10.1562H7.8125V20.3125H3.125C2.91781 20.3125 2.71907 20.2302 2.57258 20.0837C2.42605 19.9372 2.34375 19.7384 2.34375 19.5312V10.9375C2.34375 10.7303 2.42605 10.5316 2.57258 10.3851C2.71907 10.2386 2.91781 10.1562 3.125 10.1562V10.1562Z" fill="black" fill-opacity="0.1"/>
<path fill-rule="evenodd" clip-rule="evenodd" d="M2.02015 9.83265C2.02015 9.83265 2.47779 9.375 3.125 9.375H7.8125C8.24397 9.375 8.59375 9.72478 8.59375 10.1562V20.3125C8.59375 20.744 8.24397 21.0938 7.8125 21.0938H3.125C3.125 21.0938 2.47779 21.0938 2.02015 20.6361C2.02015 20.6361 1.5625 20.1785 1.5625 19.5312V10.9375C1.5625 10.9375 1.5625 10.2903 2.02015 9.83265ZM3.125 10.9375V19.5312H7.03125V10.9375H3.125Z" fill="#DEDEDE"/>
<path d="M19.7168 19.5312H7.8125C7.38103 19.5312 7.03125 19.881 7.03125 20.3125C7.03125 20.744 7.38103 21.0938 7.8125 21.0938H19.7168C20.6032 21.0896 21.2639 20.5042 21.2639 20.5042C21.9246 19.9188 22.0349 19.043 22.0349 19.043L23.2069 9.66721C23.2728 9.1726 23.1264 8.68895 23.1264 8.68895C22.9799 8.2053 22.6466 7.82553 22.6466 7.82553C22.3132 7.44576 21.8527 7.23788 21.8527 7.23788C21.3921 7.03 20.8867 7.03125 20.8867 7.03125L15.625 7.03125V5.46875C15.625 3.85073 14.4809 2.70661 14.4809 2.70661C13.3368 1.5625 11.7188 1.5625 11.7188 1.5625C11.4228 1.5625 11.1523 1.72969 11.02 1.99436L7.11395 9.80643L7.11373 9.80686C7.05949 9.91535 7.03125 10.035 7.03125 10.1562L7.03126 10.1591C7.03155 10.2421 7.04509 10.3245 7.07134 10.4033C7.13686 10.5999 7.27779 10.7624 7.46311 10.855C7.5716 10.9093 7.69121 10.9375 7.8125 10.9375L7.82309 10.9374C8.11517 10.9335 8.38064 10.7669 8.51127 10.5056L8.51149 10.5052L12.1807 3.16682C12.859 3.29444 13.376 3.81147 13.376 3.81147C14.0625 4.49794 14.0625 5.46875 14.0625 5.46875V7.8125C14.0625 8.24397 14.4123 8.59375 14.8437 8.59375L20.8906 8.59375C21.0576 8.59334 21.2099 8.66205 21.2099 8.66205C21.3621 8.73076 21.4723 8.85629 21.4723 8.85629C21.5825 8.98182 21.6309 9.14169 21.6309 9.14169C21.6793 9.30156 21.6564 9.47341 21.6564 9.47341L20.4846 18.8477C20.4479 19.1396 20.2276 19.3347 20.2276 19.3347C20.0074 19.5299 19.7168 19.5312 19.7168 19.5312Z" fill="#DEDEDE"/>
</svg>
