<svg width="20" height="20" viewBox="0 0 20 20" fill="none" xmlns="http://www.w3.org/2000/svg">
<path fill-rule="evenodd" clip-rule="evenodd" d="M9.99975 1.66699C7.23833 1.66699 4.99975 3.90557 4.99975 6.66699V8.19281C4.99975 9.37556 4.67832 10.5361 4.06981 11.5503L3.60863 12.3189C3.43514 12.6081 3.34839 12.7526 3.313 12.8639C3.13664 13.4185 3.46925 14.006 4.03555 14.1401C4.14919 14.167 4.3178 14.167 4.655 14.167H15.3446C15.6817 14.167 15.8503 14.167 15.964 14.1401C16.5303 14.006 16.8629 13.4185 16.6865 12.8639C16.6511 12.7526 16.5644 12.6081 16.3909 12.3189L15.9297 11.5503C15.3212 10.5361 14.9998 9.37555 14.9998 8.19279V7.82567C14.9998 7.6627 14.9998 7.58122 14.9545 7.53707C14.9093 7.49292 14.818 7.49517 14.6355 7.49968C14.6181 7.50011 14.6006 7.50033 14.5831 7.50033C13.4325 7.50033 12.4998 6.56759 12.4998 5.41699C12.4998 4.6766 12.886 4.02641 13.468 3.65692C13.6438 3.54529 13.7317 3.48948 13.7398 3.41826C13.7479 3.34703 13.6856 3.28381 13.561 3.15735C12.6542 2.23733 11.3936 1.66699 9.99975 1.66699Z" fill="white"/>
<circle cx="14.5835" cy="5.41699" r="1.25" fill="white"/>
<path d="M11.9335 15.0003C12.0163 15.0003 12.0844 15.0677 12.0751 15.15C12.0315 15.5372 11.8197 15.9018 11.4733 16.1788C11.0826 16.4914 10.5527 16.667 10.0002 16.667C9.44763 16.667 8.91772 16.4914 8.52702 16.1788C8.18067 15.9018 7.96887 15.5372 7.92524 15.15C7.91597 15.0677 7.98399 15.0003 8.06683 15.0003L10.0002 15.0003L11.9335 15.0003Z" fill="white"/>
</svg>
