<svg width="20" height="20" viewBox="0 0 20 20" fill="none" xmlns="http://www.w3.org/2000/svg">
<path d="M4.99995 6.66699C4.99995 3.90557 7.23853 1.66699 9.99995 1.66699V1.66699C12.7614 1.66699 14.9999 3.90557 14.9999 6.66699V8.19279C14.9999 9.37555 15.3214 10.5361 15.9299 11.5503L16.3911 12.3189C16.5646 12.6081 16.6513 12.7526 16.6867 12.8639C16.8631 13.4185 16.5305 14.006 15.9642 14.1401C15.8505 14.167 15.6819 14.167 15.3447 14.167H4.6552C4.31799 14.167 4.14939 14.167 4.03575 14.1401C3.46945 14.006 3.13683 13.4185 3.3132 12.8639C3.34859 12.7526 3.43534 12.6081 3.60882 12.3189L4.07 11.5503C4.67851 10.5361 4.99995 9.37556 4.99995 8.19281V6.66699Z" fill="white"/>
<path d="M11.9335 15.0003C12.0163 15.0003 12.0844 15.0677 12.0751 15.15C12.0315 15.5372 11.8197 15.9018 11.4733 16.1788C11.0826 16.4914 10.5527 16.667 10.0002 16.667C9.44763 16.667 8.91772 16.4914 8.52702 16.1788C8.18067 15.9018 7.96887 15.5372 7.92524 15.15C7.91597 15.0677 7.98399 15.0003 8.06683 15.0003L10.0002 15.0003L11.9335 15.0003Z" fill="white"/>
</svg>
