<svg width="27" height="27" viewBox="0 0 27 27" fill="none" xmlns="http://www.w3.org/2000/svg">
<path d="M22.5247 2.58066L22.6828 3.05501L22.5247 2.58066ZM24.3716 2.0323L24.284 1.54003L24.3716 2.0323ZM8.71776 7.18298L8.87587 7.65733L8.71776 7.18298ZM3.48364 9.10336L3.70237 9.55298H3.70237L3.48364 9.10336ZM3.48364 11.9034L3.26491 12.353H3.26491L3.48364 11.9034ZM8.71775 13.8238L8.55964 14.2981L8.71775 13.8238ZM9.92914 14.2276L9.77102 14.7019L9.77103 14.7019L9.92914 14.2276ZM10.0383 14.2639L10.1961 13.7895L10.1961 13.7895L10.0383 14.2639ZM11.855 15.1477L11.5015 15.5013H11.5015L11.855 15.1477ZM12.7389 16.9645L12.2644 17.1223L12.2644 17.1223L12.7389 16.9645ZM12.7752 17.0736L13.2495 16.9155L13.2495 16.9155L12.7752 17.0736ZM13.179 18.285L12.7046 18.4431L13.179 18.285ZM15.0994 23.5191L15.549 23.3004L15.0994 23.5191ZM17.8994 23.5191L17.4498 23.3004L17.8994 23.5191ZM19.8198 18.285L19.3454 18.1269L19.8198 18.285ZM24.4221 4.47803L23.9477 4.31992L24.4221 4.47803ZM24.9704 2.63118L25.4627 2.71875V2.71875L24.9704 2.63118ZM24.9338 2.069L24.5802 2.42255V2.42255L24.9338 2.069ZM25.6409 1.36189L25.9944 1.00834V1.00834L25.6409 1.36189ZM24.1964 1.04776L24.1089 0.555485V0.555485L24.1964 1.04776ZM25.955 2.80633L26.4473 2.8939L26.4473 2.8939L25.955 2.80633ZM25.3844 4.75347L24.91 4.59534L24.91 4.59536L25.3844 4.75347ZM25.3708 4.79426L25.8451 4.95237L25.8451 4.95237L25.3708 4.79426ZM20.7684 18.6012L21.2428 18.7594L21.2428 18.7593L20.7684 18.6012ZM20.7542 18.6438L20.2799 18.4857L20.2799 18.4857L20.7542 18.6438ZM18.7986 23.9566L19.2482 24.1753L19.2482 24.1753L18.7986 23.9566ZM14.2001 23.9566L13.7505 24.1753V24.1753L14.2001 23.9566ZM12.2445 18.6438L12.7188 18.4856L12.7188 18.4856L12.2445 18.6438ZM12.2303 18.6012L11.756 18.7593L11.756 18.7593L12.2303 18.6012ZM11.8265 17.3898L11.3522 17.5479L11.8265 17.3898ZM9.61291 15.1762L9.77102 14.7019H9.77102L9.61291 15.1762ZM8.40153 14.7724L8.55964 14.2981L8.55963 14.2981L8.40153 14.7724ZM8.35903 14.7583L8.20091 15.2326L8.20092 15.2326L8.35903 14.7583ZM3.04618 12.8026L2.82745 13.2522H2.82745L3.04618 12.8026ZM3.04618 8.20412L3.26491 8.65374H3.26491L3.04618 8.20412ZM8.35899 6.24848L8.5171 6.72282L8.5171 6.72282L8.35899 6.24848ZM8.40153 6.2343L8.24342 5.75996L8.40153 6.2343ZM22.2085 1.63198L22.3666 2.10632L22.3666 2.10632L22.2085 1.63198ZM22.2493 1.61837L22.4074 2.09271L22.4074 2.09271L22.2493 1.61837ZM22.6828 3.05501C23.5434 2.76815 24.0803 2.59196 24.4591 2.52457L24.284 1.54003C23.8153 1.6234 23.1941 1.83048 22.3666 2.10632L22.6828 3.05501ZM8.87587 7.65733L22.6828 3.05501L22.3666 2.10632L8.55965 6.70864L8.87587 7.65733ZM3.70237 9.55298C4.80506 9.01655 6.49223 8.45187 8.87587 7.65733L8.55965 6.70864C6.20654 7.49301 4.44154 8.08134 3.26491 8.65374L3.70237 9.55298ZM2.5 10.5034C2.5 10.4621 2.50665 10.3757 2.65701 10.2212C2.8214 10.0523 3.13273 9.8301 3.70237 9.55298L3.26491 8.65374C2.65286 8.95149 2.22237 9.23404 1.94037 9.5238C1.64432 9.82799 1.5 10.1542 1.5 10.5034H2.5ZM3.70237 11.4538C3.13273 11.1767 2.8214 10.9544 2.65701 10.7855C2.50665 10.631 2.5 10.5446 2.5 10.5034H1.5C1.5 10.8526 1.64432 11.1788 1.94037 11.483C2.22237 11.7727 2.65286 12.0553 3.26491 12.353L3.70237 11.4538ZM8.87587 13.3494C6.49223 12.5549 4.80506 11.9902 3.70237 11.4538L3.26491 12.353C4.44154 12.9254 6.20654 13.5137 8.55964 14.2981L8.87587 13.3494ZM10.0873 13.7532L8.87587 13.3494L8.55964 14.2981L9.77102 14.7019L10.0873 13.7532ZM10.1961 13.7895C10.1602 13.7775 10.124 13.7655 10.0872 13.7532L9.77103 14.7019C9.80804 14.7142 9.84455 14.7264 9.88043 14.7383L10.1961 13.7895ZM12.2086 14.7942C11.6893 14.2749 10.9862 14.0523 10.1961 13.7895L9.88043 14.7383C10.7395 15.0241 11.1834 15.1832 11.5015 15.5013L12.2086 14.7942ZM13.2133 16.8066C12.9504 16.0166 12.7279 15.3135 12.2086 14.7942L11.5015 15.5013C11.8195 15.8194 11.9786 16.2633 12.2644 17.1223L13.2133 16.8066ZM13.2495 16.9155C13.2373 16.8788 13.2252 16.8425 13.2133 16.8066L12.2644 17.1223C12.2764 17.1582 12.2885 17.1947 12.3008 17.2317L13.2495 16.9155ZM13.6533 18.1269L13.2495 16.9155L12.3008 17.2317L12.7046 18.4431L13.6533 18.1269ZM15.549 23.3004C15.0125 22.1977 14.4479 20.5105 13.6533 18.1269L12.7046 18.4431C13.489 20.7962 14.0773 22.5612 14.6497 23.7378L15.549 23.3004ZM16.4994 24.5027C16.4581 24.5027 16.3717 24.4961 16.2172 24.3457C16.0483 24.1813 15.8261 23.87 15.549 23.3004L14.6497 23.7378C14.9475 24.3499 15.23 24.7804 15.5198 25.0624C15.824 25.3584 16.1502 25.5027 16.4994 25.5027V24.5027ZM17.4498 23.3004C17.1727 23.87 16.9504 24.1813 16.7815 24.3457C16.627 24.4961 16.5406 24.5027 16.4994 24.5027V25.5027C16.8486 25.5027 17.1748 25.3584 17.4789 25.0624C17.7687 24.7804 18.0513 24.3499 18.349 23.7378L17.4498 23.3004ZM19.3454 18.1269C18.5509 20.5105 17.9862 22.1977 17.4498 23.3004L18.349 23.7378C18.9214 22.5612 19.5097 20.7962 20.2941 18.4431L19.3454 18.1269ZM23.9477 4.31992L19.3454 18.1269L20.2941 18.4431L24.8964 4.63615L23.9477 4.31992ZM24.4782 2.54361C24.4108 2.92243 24.2346 3.45936 23.9477 4.31992L24.8964 4.63615C25.1723 3.80863 25.3793 3.18742 25.4627 2.71875L24.4782 2.54361ZM24.5802 2.42255C24.5757 2.41804 24.5657 2.40769 24.5543 2.3931C24.5429 2.37841 24.5327 2.36267 24.5241 2.34637C24.5066 2.31341 24.5023 2.29031 24.5018 2.28749C24.5015 2.28606 24.5045 2.30298 24.5026 2.34637C24.5007 2.38943 24.4943 2.45322 24.4782 2.54361L25.4627 2.71875C25.5055 2.4781 25.5153 2.28305 25.4877 2.12046C25.4553 1.92913 25.3746 1.80278 25.2873 1.71545L24.5802 2.42255ZM24.4591 2.52457C24.5495 2.50849 24.6133 2.50207 24.6564 2.50017C24.6998 2.49826 24.7167 2.50121 24.7153 2.50097C24.7124 2.50049 24.6893 2.4961 24.6564 2.47867C24.6401 2.47005 24.6243 2.4598 24.6096 2.4484C24.5951 2.43707 24.5847 2.42706 24.5802 2.42255L25.2873 1.71545C25.2 1.62811 25.0736 1.54743 24.8823 1.51501C24.7197 1.48747 24.5246 1.49722 24.284 1.54003L24.4591 2.52457ZM25.9944 1.00834C25.4136 0.427546 24.658 0.45779 24.1089 0.555485L24.284 1.54003C24.7544 1.45635 25.0695 1.49767 25.2873 1.71544L25.9944 1.00834ZM26.4473 2.8939C26.545 2.34471 26.5752 1.58913 25.9944 1.00834L25.2873 1.71544C25.5051 1.93322 25.5464 2.24837 25.4627 2.71875L26.4473 2.8939ZM25.8587 4.9116C26.1182 4.1331 26.3495 3.44319 26.4473 2.8939L25.4627 2.71875C25.3808 3.17903 25.1793 3.78745 24.91 4.59534L25.8587 4.9116ZM25.8451 4.95237L25.8587 4.91158L24.91 4.59536L24.8964 4.63615L25.8451 4.95237ZM21.2428 18.7593L25.8451 4.95237L24.8964 4.63615L20.2941 18.4431L21.2428 18.7593ZM21.2286 18.8019L21.2428 18.7594L20.2941 18.4431L20.2799 18.4857L21.2286 18.8019ZM19.2482 24.1753C19.8529 22.9323 20.461 21.1046 21.2286 18.8019L20.2799 18.4857C19.5025 20.8178 18.9178 22.5685 18.349 23.7378L19.2482 24.1753ZM16.4994 26.5027C17.8815 26.5027 18.6815 25.3403 19.2482 24.1753L18.349 23.7378C17.7759 24.9158 17.2194 25.5027 16.4994 25.5027V26.5027ZM13.7505 24.1753C14.3173 25.3403 15.1172 26.5027 16.4994 26.5027V25.5027C15.7794 25.5027 15.2228 24.9158 14.6497 23.7378L13.7505 24.1753ZM11.7701 18.8019C12.5377 21.1046 13.1458 22.9323 13.7505 24.1753L14.6497 23.7378C14.0809 22.5685 13.4962 20.8178 12.7188 18.4856L11.7701 18.8019ZM11.756 18.7593L11.7701 18.8019L12.7188 18.4856L12.7046 18.4431L11.756 18.7593ZM11.3522 17.5479L11.756 18.7593L12.7046 18.4431L12.3008 17.2317L11.3522 17.5479ZM10.7944 16.2084C10.8489 16.263 10.9063 16.3399 10.9921 16.5394C11.0821 16.7487 11.1872 17.0531 11.3522 17.5479L12.3008 17.2317C12.1396 16.7479 12.0208 16.4002 11.9107 16.1443C11.7965 15.8787 11.6777 15.6775 11.5015 15.5013L10.7944 16.2084ZM9.45479 15.6506C9.94961 15.8155 10.254 15.9206 10.4633 16.0107C10.6629 16.0965 10.7398 16.1538 10.7944 16.2084L11.5015 15.5013C11.3253 15.3251 11.124 15.2062 10.8584 15.092C10.6026 14.982 10.2549 14.8632 9.77102 14.7019L9.45479 15.6506ZM8.24341 15.2468L9.4548 15.6506L9.77102 14.7019L8.55964 14.2981L8.24341 15.2468ZM8.20092 15.2326L8.24342 15.2468L8.55963 14.2981L8.51713 14.2839L8.20092 15.2326ZM2.82745 13.2522C4.0705 13.857 5.8982 14.4651 8.20091 15.2326L8.51714 14.2839C6.18501 13.5066 4.43424 12.9219 3.26491 12.353L2.82745 13.2522ZM0.5 10.5034C0.5 11.8855 1.6624 12.6855 2.82745 13.2522L3.26491 12.353C2.0869 11.7799 1.5 11.2234 1.5 10.5034H0.5ZM2.82745 7.7545C1.6624 8.32127 0.5 9.12125 0.5 10.5034H1.5C1.5 9.78337 2.0869 9.22682 3.26491 8.65374L2.82745 7.7545ZM8.20088 5.77414C5.89818 6.5417 4.07049 7.1498 2.82745 7.7545L3.26491 8.65374C4.43424 8.08489 6.18499 7.50019 8.5171 6.72282L8.20088 5.77414ZM8.24342 5.75996L8.20088 5.77414L8.5171 6.72282L8.55965 6.70864L8.24342 5.75996ZM22.0504 1.15764L8.24342 5.75996L8.55965 6.70864L22.3666 2.10632L22.0504 1.15764ZM22.0912 1.14403L22.0504 1.15764L22.3666 2.10632L22.4074 2.09271L22.0912 1.14403ZM24.1089 0.555485C23.5596 0.653198 22.8697 0.884518 22.0912 1.14403L22.4074 2.09271C23.2153 1.82339 23.8237 1.62191 24.284 1.54003L24.1089 0.555485Z" fill="#B3B7B9"/>
</svg>
