<svg width="30" height="30" viewBox="0 0 30 30" fill="none" xmlns="http://www.w3.org/2000/svg">
<path d="M12.6795 8.28429C13.6627 5.83305 14.1543 4.60742 14.9998 4.60742C15.8452 4.60742 16.3368 5.83305 17.32 8.2843L17.3658 8.39844C17.9213 9.78327 18.1991 10.4757 18.7651 10.8966C19.3312 11.3174 20.0743 11.384 21.5604 11.5171L21.8291 11.5411C24.2613 11.7589 25.4775 11.8679 25.7377 12.6416C25.9979 13.4153 25.0948 14.237 23.2885 15.8804L22.6856 16.4288C21.7712 17.2607 21.314 17.6767 21.1009 18.2218C21.0612 18.3235 21.0282 18.4277 21.002 18.5337C20.862 19.1021 20.9958 19.7055 21.2636 20.9123L21.3469 21.288C21.839 23.5059 22.0851 24.6148 21.6555 25.0932C21.495 25.2719 21.2863 25.4006 21.0545 25.4638C20.4343 25.6331 19.5537 24.9155 17.7925 23.4804C16.636 22.5381 16.0578 22.0669 15.3939 21.9609C15.1328 21.9192 14.8667 21.9192 14.6056 21.9609C13.9417 22.0669 13.3635 22.5381 12.207 23.4804C10.4458 24.9155 9.56521 25.6331 8.94496 25.4638C8.71318 25.4006 8.50455 25.2719 8.34402 25.0932C7.91442 24.6148 8.16046 23.5059 8.65256 21.288L8.7359 20.9123C9.00366 19.7055 9.13754 19.1021 8.99748 18.5337C8.97135 18.4277 8.9383 18.3235 8.89855 18.2218C8.68546 17.6767 8.22827 17.2607 7.31389 16.4288L6.71103 15.8804C4.90473 14.237 4.00158 13.4153 4.2618 12.6416C4.52202 11.8679 5.73816 11.7589 8.17042 11.5411L8.4391 11.5171C9.92524 11.384 10.6683 11.3174 11.2344 10.8966C11.8004 10.4757 12.0782 9.78327 12.6337 8.39844L12.6795 8.28429Z" fill="#FED47E" stroke="#FED47E"/>
</svg>
