<svg width="5" height="20" viewBox="0 0 5 20" fill="none" xmlns="http://www.w3.org/2000/svg">
<path d="M2.10355 15.5962C2.54389 15.5743 2.98065 15.6851 3.35736 15.9142C3.73406 16.1432 4.03339 16.48 4.21662 16.881C4.39986 17.282 4.45858 17.7288 4.38519 18.1635C4.31179 18.5982 4.10966 19.001 3.80494 19.3196C3.50021 19.6382 3.10691 19.8581 2.67588 19.9508C2.24486 20.0434 1.79593 20.0047 1.38717 19.8395C0.978399 19.6743 0.628589 19.3903 0.382971 19.0242C0.137354 18.6581 0.00722407 18.2267 0.00941301 17.7858C-0.018472 17.4995 0.0157742 17.2106 0.109802 16.9387C0.20383 16.6669 0.355428 16.4185 0.554242 16.2106C0.753056 16.0028 0.994401 15.8403 1.26179 15.7342C1.52917 15.6282 1.8163 15.5811 2.10355 15.5962Z" fill="#B3B7B9"/>
<path d="M2.10355 7.64207C2.54389 7.62023 2.98065 7.73101 3.35736 7.96006C3.73406 8.18912 4.03339 8.52592 4.21662 8.92692C4.39986 9.32792 4.45858 9.77467 4.38519 10.2094C4.31179 10.6441 4.10966 11.0468 3.80494 11.3655C3.50021 11.6841 3.10691 11.904 2.67588 11.9967C2.24486 12.0893 1.79593 12.0506 1.38717 11.8854C0.978399 11.7202 0.628589 11.4362 0.382971 11.0701C0.137354 10.704 0.00722407 10.2726 0.00941301 9.83169C-0.018472 9.5454 0.0157742 9.25646 0.109802 8.98461C0.20383 8.71277 0.355428 8.46442 0.554242 8.25654C0.753056 8.04866 0.994401 7.88615 1.26179 7.7801C1.52917 7.67405 1.8163 7.62697 2.10355 7.64207Z" fill="#B3B7B9"/>
<path d="M2.10355 0.00339317C2.54389 -0.0184407 2.98065 0.0923338 3.35736 0.321391C3.73406 0.550449 4.03339 0.887251 4.21662 1.28825C4.39986 1.68925 4.45858 2.136 4.38519 2.57073C4.31179 3.00546 4.10966 3.40817 3.80494 3.72679C3.50021 4.04541 3.10691 4.26529 2.67588 4.35798C2.24486 4.45067 1.79593 4.41192 1.38717 4.24674C0.978399 4.08156 0.628589 3.79754 0.382971 3.43141C0.137354 3.06529 0.00722407 2.63389 0.00941301 2.19302C-0.018472 1.90673 0.0157742 1.61778 0.109802 1.34594C0.20383 1.07409 0.355428 0.82575 0.554242 0.61787C0.753056 0.40999 0.994401 0.247473 1.26179 0.141424C1.52917 0.0353751 1.8163 -0.0117059 2.10355 0.00339317Z" fill="#B3B7B9"/>
</svg>
