<svg width="60" height="60" viewBox="0 0 60 60" fill="none" xmlns="http://www.w3.org/2000/svg">
<rect width="60" height="60" rx="10" fill="#0A2536"/>
<path d="M34.0283 42.458C34.0283 43.1579 34.1097 43.7275 34.2725 44.167C34.4515 44.5902 34.7038 44.9238 35.0293 45.168C35.3548 45.4121 35.7617 45.583 36.25 45.6807C36.7546 45.762 37.3405 45.8027 38.0078 45.8027C39.082 45.8027 40.0505 45.6969 40.9131 45.4854C41.7757 45.2575 42.5326 45.0133 43.1836 44.7529C43.8346 44.4762 44.3799 44.224 44.8193 43.9961C45.2751 43.7682 45.625 43.6543 45.8691 43.6543C46.1784 43.6543 46.4225 43.752 46.6016 43.9473C46.7806 44.1426 46.8701 44.4274 46.8701 44.8018C46.8701 45.4528 46.805 45.9248 46.6748 46.2178C46.5446 46.4945 46.276 46.7061 45.8691 46.8525C44.388 47.3734 42.7197 47.7559 40.8643 48C39.0088 48.2604 36.9092 48.3906 34.5654 48.3906C32.8239 48.3906 31.3997 48.3092 30.293 48.1465C29.1862 48 28.3154 47.7314 27.6807 47.3408C27.0459 46.9502 26.6064 46.4212 26.3623 45.7539C26.1344 45.0703 26.0205 44.1995 26.0205 43.1416V15.4072C26.0205 15.0492 25.9798 14.7643 25.8984 14.5527C25.8171 14.3411 25.7031 14.1784 25.5566 14.0645C25.4102 13.9342 25.2311 13.8529 25.0195 13.8203C24.8242 13.7715 24.6045 13.7471 24.3604 13.7471C24.0023 13.7471 23.5547 13.804 23.0176 13.918C22.4967 14.0319 21.9434 14.2028 21.3574 14.4307C20.7715 14.6585 20.1774 14.9434 19.5752 15.2852C18.9893 15.6107 18.4603 15.985 17.9883 16.4082C17.5326 16.8314 17.1582 17.3034 16.8652 17.8242C16.5723 18.3451 16.4258 18.9066 16.4258 19.5088C16.4258 20.0296 16.4909 20.4447 16.6211 20.7539C16.7676 21.0632 16.9303 21.2992 17.1094 21.4619C17.2884 21.6084 17.4674 21.7061 17.6465 21.7549C17.8418 21.7874 17.9801 21.8037 18.0615 21.8037C18.4684 21.8037 18.8021 21.7386 19.0625 21.6084C19.3229 21.4619 19.5589 21.3154 19.7705 21.1689C19.9821 21.0062 20.1774 20.8597 20.3564 20.7295C20.5518 20.583 20.7715 20.5098 21.0156 20.5098C21.2109 20.5098 21.4144 20.5586 21.626 20.6562C21.8538 20.7376 22.0573 20.876 22.2363 21.0713C22.4316 21.2666 22.5944 21.527 22.7246 21.8525C22.8548 22.1618 22.9199 22.5443 22.9199 23C22.9199 23.651 22.7897 24.2126 22.5293 24.6846C22.2852 25.1566 21.9596 25.5553 21.5527 25.8809C21.1621 26.1901 20.7064 26.4261 20.1855 26.5889C19.681 26.7354 19.1764 26.8086 18.6719 26.8086C17.8906 26.8086 17.1826 26.6784 16.5479 26.418C15.9294 26.1413 15.4004 25.7669 14.9609 25.2949C14.5215 24.8229 14.1878 24.2695 13.96 23.6348C13.7321 23 13.6182 22.3245 13.6182 21.6084C13.6182 20.4854 13.8216 19.46 14.2285 18.5322C14.6354 17.5882 15.1888 16.7419 15.8887 15.9932C16.6048 15.2445 17.4349 14.5934 18.3789 14.04C19.3392 13.4704 20.3727 12.9984 21.4795 12.624C22.5863 12.2497 23.7419 11.973 24.9463 11.7939C26.1507 11.5986 27.3551 11.501 28.5596 11.501C29.8942 11.501 30.9277 11.6312 31.6602 11.8916C32.4089 12.1357 32.9541 12.4368 33.2959 12.7949C33.654 13.153 33.8656 13.5273 33.9307 13.918C33.9958 14.3086 34.0283 14.6341 34.0283 14.8945V42.458Z" fill="white"/>
</svg>
